<svg width="30" height="30" viewBox="0 0 30 30" fill="none" xmlns="http://www.w3.org/2000/svg">
<path d="M3.27344 14.8147C3.27344 9.2866 3.27344 6.52256 4.99079 4.80519C6.70816 3.08783 9.47221 3.08783 15.0003 3.08783C20.5284 3.08783 23.2924 3.08783 25.0099 4.80519C26.7272 6.52256 26.7272 9.2866 26.7272 14.8147C26.7272 20.3427 26.7272 23.1068 25.0099 24.8243C23.2924 26.5416 20.5284 26.5416 15.0003 26.5416C9.47221 26.5416 6.70816 26.5416 4.99079 24.8243C3.27344 23.1068 3.27344 20.3427 3.27344 14.8147Z" stroke="white" stroke-width="1.25" stroke-linejoin="round"/>
<path d="M21.0798 9.90961H17.4446C16.1561 9.90961 15.1088 10.9491 15.0993 12.2376L14.994 26.4512M12.6309 17.2856H18.5593" stroke="white" stroke-width="1.25" stroke-linecap="round" stroke-linejoin="round"/>
</svg>
