<svg width="30" height="30" viewBox="0 0 30 30" fill="none" xmlns="http://www.w3.org/2000/svg">
<path d="M3.17969 14.8147C3.17969 9.2866 3.17969 6.52256 4.89704 4.80519C6.61441 3.08783 9.37846 3.08783 14.9066 3.08783C20.4346 3.08783 23.1987 3.08783 24.9161 4.80519C26.6334 6.52256 26.6334 9.2866 26.6334 14.8147C26.6334 20.3427 26.6334 23.1068 24.9161 24.8243C23.1987 26.5416 20.4346 26.5416 14.9066 26.5416C9.37846 26.5416 6.61441 26.5416 4.89704 24.8243C3.17969 23.1068 3.17969 20.3427 3.17969 14.8147Z" stroke="white" stroke-width="1.25" stroke-linejoin="round"/>
<path d="M20.4593 14.8147C20.4593 17.8826 17.9723 20.3695 14.9044 20.3695C11.8366 20.3695 9.34961 17.8826 9.34961 14.8147C9.34961 11.7468 11.8366 9.25986 14.9044 9.25986C17.9723 9.25986 20.4593 11.7468 20.4593 14.8147Z" stroke="white" stroke-width="1.25"/>
<path d="M21.7048 8.02545H21.6934" stroke="white" stroke-width="1.25" stroke-linecap="round" stroke-linejoin="round"/>
</svg>
