<svg width="30" height="30" viewBox="0 0 30 30" fill="none" xmlns="http://www.w3.org/2000/svg">
<path d="M8.92188 12.3459V20.9867" stroke="white" stroke-width="1.25" stroke-linecap="round" stroke-linejoin="round"/>
<path d="M13.8613 16.0491V20.9867M13.8613 16.0491C13.8613 14.0038 15.5193 12.3459 17.5646 12.3459C19.6098 12.3459 21.2678 14.0038 21.2678 16.0491V20.9867M13.8613 16.0491V12.3459" stroke="white" stroke-width="1.25" stroke-linecap="round" stroke-linejoin="round"/>
<path d="M8.93135 8.64264H8.91992" stroke="white" stroke-width="1.25" stroke-linecap="round" stroke-linejoin="round"/>
<path d="M3.36719 14.8147C3.36719 9.2866 3.36719 6.52256 5.08454 4.80519C6.80191 3.08783 9.56596 3.08783 15.0941 3.08783C20.6221 3.08783 23.3862 3.08783 25.1036 4.80519C26.8209 6.52256 26.8209 9.2866 26.8209 14.8147C26.8209 20.3427 26.8209 23.1068 25.1036 24.8243C23.3862 26.5416 20.6221 26.5416 15.0941 26.5416C9.56596 26.5416 6.80191 26.5416 5.08454 24.8243C3.36719 23.1068 3.36719 20.3427 3.36719 14.8147Z" stroke="white" stroke-width="1.25" stroke-linejoin="round"/>
</svg>
