<svg width="30" height="30" viewBox="0 0 30 30" fill="none" xmlns="http://www.w3.org/2000/svg">
<path d="M3.08594 14.8138C3.08594 9.28536 3.08594 6.52114 4.8034 4.80367C6.52087 3.08621 9.28509 3.08621 14.8135 3.08621C20.342 3.08621 23.1061 3.08621 24.8237 4.80367C26.5411 6.52114 26.5411 9.28536 26.5411 14.8138C26.5411 20.3422 26.5411 23.1064 24.8237 24.824C23.1061 26.5414 20.342 26.5414 14.8135 26.5414C9.28509 26.5414 6.52087 26.5414 4.8034 24.824C3.08594 23.1064 3.08594 20.3422 3.08594 14.8138Z" stroke="white" stroke-width="1.16005" stroke-linecap="round" stroke-linejoin="round"/>
<path d="M8.64062 20.9862L13.8175 15.8094M13.8175 15.8094L8.64062 8.64139H12.0697L15.8086 13.8182M13.8175 15.8094L17.5563 20.9862H20.9854L15.8086 13.8182M20.9854 8.64139L15.8086 13.8182" stroke="white" stroke-width="1.16005" stroke-linecap="round" stroke-linejoin="round"/>
</svg>
