<svg width="30" height="30" viewBox="0 0 30 30" fill="none" xmlns="http://www.w3.org/2000/svg">
<path d="M15.1878 25.3072C17.4217 25.3072 19.5639 25.0864 21.5492 24.6818C24.029 24.1763 25.269 23.9235 26.4004 22.4688C27.5319 21.014 27.5319 19.3441 27.5319 16.004V13.6253C27.5319 10.2853 27.5319 8.61534 26.4004 7.16059C25.269 5.70586 24.029 5.45311 21.5492 4.94761C19.5639 4.54291 17.4217 4.32224 15.1878 4.32224C12.9539 4.32224 10.8117 4.54291 8.82638 4.94761C6.34658 5.45311 5.10668 5.70586 3.97521 7.16059C2.84375 8.61534 2.84375 10.2853 2.84375 13.6253V16.004C2.84375 19.3441 2.84375 21.014 3.97521 22.4688C5.10668 23.9235 6.34658 24.1763 8.82638 24.6818C10.8117 25.0864 12.9539 25.3072 15.1878 25.3072Z" stroke="white" stroke-width="1.25"/>
<path d="M20.0784 15.2009C19.8953 15.9487 18.9206 16.4858 16.9712 17.5601C14.8509 18.7284 13.7907 19.3126 12.9321 19.0876C12.6413 19.0113 12.3734 18.8772 12.1485 18.6954C11.4844 18.1586 11.4844 17.0439 11.4844 14.8147C11.4844 12.5855 11.4844 11.4708 12.1485 10.9339C12.3734 10.7521 12.6413 10.6181 12.9321 10.5418C13.7907 10.3168 14.8509 10.9009 16.9712 12.0693C18.9206 13.1435 19.8953 13.6806 20.0784 14.4284C20.1408 14.683 20.1408 14.9464 20.0784 15.2009Z" stroke="white" stroke-width="1.25" stroke-linejoin="round"/>
</svg>
